<?xml version="1.0" encoding="UTF-8"?>
<svg width="500px" height="400px" viewBox="0 0 500 400" version="1.1" xmlns="http://www.w3.org/2000/svg" xmlns:xlink="http://www.w3.org/1999/xlink">
    <title>Our Story - Aviation</title>
    <defs>
        <linearGradient x1="0%" y1="0%" x2="100%" y2="100%" id="skyGradient">
            <stop stop-color="#007CBE" offset="0%"></stop>
            <stop stop-color="#13294B" offset="100%"></stop>
        </linearGradient>
        <linearGradient x1="0%" y1="0%" x2="100%" y2="0%" id="sunsetGradient">
            <stop stop-color="#FF6B35" offset="0%"></stop>
            <stop stop-color="#13294B" offset="100%"></stop>
        </linearGradient>
    </defs>
    <g stroke="none" stroke-width="1" fill="none" fill-rule="evenodd">
        <rect fill="#EBF2FA" x="0" y="0" width="500" height="400"></rect>
        
        <!-- Timeline Background -->
        <rect fill="#FFFFFF" x="50" y="180" width="400" height="40" rx="20"></rect>
        <rect fill="#13294B" x="50" y="198" width="400" height="4"></rect>
        
        <!-- Timeline Nodes -->
        <circle fill="#007CBE" cx="100" cy="200" r="15"></circle>
        <circle fill="#4A6FA5" cx="200" cy="200" r="15"></circle>
        <circle fill="#13294B" cx="300" cy="200" r="15"></circle>
        <circle fill="#FF6B35" cx="400" cy="200" r="15"></circle>
        
        <!-- Year Labels -->
        <text font-family="Arial" font-size="12" fill="#13294B" x="95" y="230">2010</text>
        <text font-family="Arial" font-size="12" fill="#13294B" x="195" y="230">2015</text>
        <text font-family="Arial" font-size="12" fill="#13294B" x="295" y="230">2020</text>
        <text font-family="Arial" font-size="12" fill="#13294B" x="395" y="230">Today</text>
        
        <!-- Historical Planes -->
        
        <!-- Vintage Prop Plane (2010) -->
        <g transform="translate(70, 100)">
            <path d="M10,20 L50,20 C55,20 60,25 60,30 L60,40 C60,45 55,50 50,50 L10,50 C5,50 0,45 0,40 L0,30 C0,25 5,20 10,20 Z" fill="#13294B"></path>
            <path d="M50,30 L70,25 L70,45 L50,40 Z" fill="#13294B"></path>
            <rect fill="#4A6FA5" x="20" y="15" width="20" height="5"></rect>
            <rect fill="#4A6FA5" x="20" y="50" width="20" height="5"></rect>
            <circle fill="#007CBE" cx="15" cy="35" r="5"></circle>
            <circle fill="#007CBE" cx="30" cy="35" r="5"></circle>
            <circle fill="#007CBE" cx="45" cy="35" r="5"></circle>
        </g>
        
        <!-- Mid-range Jet (2015) -->
        <g transform="translate(170, 120)">
            <path d="M10,15 L60,15 C65,15 70,20 70,25 L70,35 C70,40 65,45 60,45 L10,45 C5,45 0,40 0,35 L0,25 C0,20 5,15 10,15 Z" fill="#4A6FA5"></path>
            <path d="M30,15 L40,5 L50,15 Z" fill="#FF6B35"></path>
            <path d="M30,45 L40,55 L50,45 Z" fill="#FF6B35"></path>
            <path d="M60,25 L80,15 L80,45 L60,35 Z" fill="#FF6B35"></path>
            <circle fill="#EBF2FA" cx="20" cy="30" r="5"></circle>
            <circle fill="#EBF2FA" cx="35" cy="30" r="5"></circle>
            <circle fill="#EBF2FA" cx="50" cy="30" r="5"></circle>
        </g>
        
        <!-- Modern Jet (2020) -->
        <g transform="translate(270, 80)">
            <path d="M10,30 L80,30 C85,30 90,35 90,40 L90,50 C90,55 85,60 80,60 L10,60 C5,60 0,55 0,50 L0,40 C0,35 5,30 10,30 Z" fill="#FFFFFF" stroke="#13294B" stroke-width="1"></path>
            <path d="M60,30 L80,10 L60,10 Z" fill="#007CBE"></path>
            <path d="M40,60 L60,80 L80,60 Z" fill="#007CBE"></path>
            <path d="M80,40 L100,30 L100,60 L80,50 Z" fill="#007CBE"></path>
            <circle fill="#4A6FA5" cx="20" cy="45" r="6"></circle>
            <circle fill="#4A6FA5" cx="35" cy="45" r="6"></circle>
            <circle fill="#4A6FA5" cx="50" cy="45" r="6"></circle>
            <circle fill="#4A6FA5" cx="65" cy="45" r="6"></circle>
        </g>
        
        <!-- Future Jet (Today) -->
        <g transform="translate(370, 100)">
            <path d="M10,20 L90,20 C95,20 100,25 100,30 L100,40 C100,45 95,50 90,50 L10,50 C5,50 0,45 0,40 L0,30 C0,25 5,20 10,20 Z" fill="#FFFFFF" stroke="#13294B" stroke-width="1"></path>
            <rect fill="#FF6B35" x="0" y="32" width="100" height="6" rx="3"></rect>
            <path d="M70,20 L90,0 L50,0 L40,20 Z" fill="#13294B"></path>
            <path d="M70,50 L90,70 L50,70 L40,50 Z" fill="#13294B"></path>
            <path d="M90,30 L110,20 L110,50 L90,40 Z" fill="#FF6B35"></path>
            <circle fill="#007CBE" cx="20" cy="35" r="5"></circle>
            <circle fill="#007CBE" cx="35" cy="35" r="5"></circle>
            <circle fill="#007CBE" cx="50" cy="35" r="5"></circle>
            <circle fill="#007CBE" cx="65" cy="35" r="5"></circle>
            <circle fill="#007CBE" cx="80" cy="35" r="5"></circle>
        </g>
        
        <!-- Digital Elements -->
        <g transform="translate(80, 280)">
            <rect fill="#13294B" x="0" y="0" width="340" height="80" rx="5"></rect>
            <rect fill="#007CBE" x="10" y="10" width="320" height="60" rx="3"></rect>
            
            <!-- Bar Charts -->
            <rect fill="#FFFFFF" opacity="0.2" x="30" y="25" width="20" height="30"></rect>
            <rect fill="#FFFFFF" opacity="0.5" x="60" y="15" width="20" height="40"></rect>
            <rect fill="#FFFFFF" opacity="0.8" x="90" y="20" width="20" height="35"></rect>
            <rect fill="#FF6B35" x="120" y="10" width="20" height="45"></rect>
            
            <!-- Line Chart -->
            <polyline stroke="#FFFFFF" stroke-width="2" points="160,40 180,30 200,35 220,20 240,25 260,15 280,20" fill="none"></polyline>
            <circle fill="#FFFFFF" cx="160" cy="40" r="3"></circle>
            <circle fill="#FFFFFF" cx="180" cy="30" r="3"></circle>
            <circle fill="#FFFFFF" cx="200" cy="35" r="3"></circle>
            <circle fill="#FFFFFF" cx="220" cy="20" r="3"></circle>
            <circle fill="#FFFFFF" cx="240" cy="25" r="3"></circle>
            <circle fill="#FFFFFF" cx="260" cy="15" r="3"></circle>
            <circle fill="#FF6B35" cx="280" cy="20" r="4"></circle>
        </g>
    </g>
</svg>