<?xml version="1.0" encoding="UTF-8"?>
<svg width="500px" height="400px" viewBox="0 0 500 400" version="1.1" xmlns="http://www.w3.org/2000/svg" xmlns:xlink="http://www.w3.org/1999/xlink">
    <title>Why Choose Us - Aviation</title>
    <defs>
        <linearGradient x1="0%" y1="0%" x2="100%" y2="100%" id="skyGradient">
            <stop stop-color="#007CBE" offset="0%"></stop>
            <stop stop-color="#13294B" offset="100%"></stop>
        </linearGradient>
        <linearGradient x1="0%" y1="0%" x2="100%" y2="0%" id="sunsetGradient">
            <stop stop-color="#FF6B35" offset="0%"></stop>
            <stop stop-color="#13294B" offset="100%"></stop>
        </linearGradient>
    </defs>
    <g stroke="none" stroke-width="1" fill="none" fill-rule="evenodd">
        <rect fill="#EBF2FA" x="0" y="0" width="500" height="400"></rect>
        
        <!-- Control Tower -->
        <g transform="translate(300, 50)">
            <rect fill="#13294B" x="30" y="130" width="40" height="220"></rect>
            <path d="M0,130 L100,130 L100,100 L0,100 Z" fill="#4A6FA5"></path>
            <path d="M10,100 L90,100 L90,80 L10,80 Z" fill="#13294B"></path>
            <path d="M20,80 L80,80 L80,60 L20,60 Z" fill="#4A6FA5"></path>
            
            <!-- Tower Top -->
            <rect fill="#007CBE" x="20" y="20" width="60" height="40" rx="2"></rect>
            <rect fill="#EBF2FA" opacity="0.8" x="25" y="25" width="50" height="30" rx="2"></rect>
            
            <!-- Antenna -->
            <rect fill="#13294B" x="48" y="0" width="4" height="20"></rect>
            <circle fill="#FF6B35" cx="50" cy="0" r="3"></circle>
        </g>
        
        <!-- Runway -->
        <rect fill="#13294B" x="50" y="280" width="300" height="80"></rect>
        <rect fill="#FFFFFF" x="70" y="315" width="40" height="10"></rect>
        <rect fill="#FFFFFF" x="130" y="315" width="40" height="10"></rect>
        <rect fill="#FFFFFF" x="190" y="315" width="40" height="10"></rect>
        <rect fill="#FFFFFF" x="250" y="315" width="40" height="10"></rect>
        
        <!-- Tech elements -->
        <g transform="translate(50, 50)">
            <!-- Dashboard -->
            <rect fill="#13294B" x="0" y="0" width="120" height="80" rx="4"></rect>
            <rect fill="#007CBE" x="5" y="5" width="110" height="30" rx="2"></rect>
            
            <!-- Gauge -->
            <circle fill="#FFFFFF" cx="30" cy="55" r="15"></circle>
            <path d="M30,55 L30,45" stroke="#FF6B35" stroke-width="2" stroke-linecap="round"></path>
            <path d="M30,55 L38,60" stroke="#FF6B35" stroke-width="2" stroke-linecap="round"></path>
            
            <!-- Signal Bars -->
            <rect fill="#FF6B35" x="60" y="45" width="5" height="25"></rect>
            <rect fill="#FF6B35" x="70" y="50" width="5" height="20"></rect>
            <rect fill="#FF6B35" x="80" y="55" width="5" height="15"></rect>
            <rect fill="#FF6B35" x="90" y="45" width="5" height="25"></rect>
            <rect fill="#FF6B35" x="100" y="40" width="5" height="30"></rect>
        </g>
        
        <!-- Small Airplane -->
        <g transform="translate(100, 180) rotate(-10)">
            <!-- Airplane Body -->
            <path d="M50,10 L110,10 C115,10 120,15 120,20 L120,30 C120,35 115,40 110,40 L50,40 L40,50 L30,40 L10,40 C5,40 0,35 0,30 L0,20 C0,15 5,10 10,10 L50,10 Z" fill="#FFFFFF" stroke="#13294B" stroke-width="1"></path>
            
            <!-- Windows -->
            <circle fill="#4A6FA5" cx="20" cy="25" r="4"></circle>
            <circle fill="#4A6FA5" cx="35" cy="25" r="4"></circle>
            <circle fill="#4A6FA5" cx="50" cy="25" r="4"></circle>
            <circle fill="#4A6FA5" cx="65" cy="25" r="4"></circle>
            <circle fill="#4A6FA5" cx="80" cy="25" r="4"></circle>
            <circle fill="#4A6FA5" cx="95" cy="25" r="4"></circle>
            
            <!-- Wing -->
            <path d="M60,40 L90,40 L110,75 L40,75 L60,40 Z" fill="#FF6B35"></path>
            
            <!-- Tail -->
            <path d="M35,10 L45,0 L55,10 L35,10 Z" fill="#FF6B35"></path>
        </g>
        
        <!-- Satellite/Tech orbit -->
        <g transform="translate(180, 150)">
            <circle cx="0" cy="0" r="50" fill="none" stroke="#13294B" stroke-width="1" stroke-dasharray="3,3"></circle>
            
            <!-- Earth/Node -->
            <circle cx="0" cy="0" r="20" fill="url(#skyGradient)"></circle>
            
            <!-- Satellite -->
            <g transform="translate(35, -35)">
                <rect fill="#4A6FA5" x="-10" y="-5" width="20" height="10"></rect>
                <rect fill="#FF6B35" x="-15" y="-2" width="5" height="4"></rect>
                <rect fill="#FF6B35" x="10" y="-2" width="5" height="4"></rect>
            </g>
            
            <!-- Connection Lines -->
            <line x1="0" y1="0" x2="35" y2="-35" stroke="#FFFFFF" stroke-width="1" stroke-dasharray="2,2"></line>
            <line x1="0" y1="0" x2="35" y2="35" stroke="#FFFFFF" stroke-width="1" stroke-dasharray="2,2"></line>
            <line x1="0" y1="0" x2="-50" y2="0" stroke="#FFFFFF" stroke-width="1" stroke-dasharray="2,2"></line>
            
            <!-- Node -->
            <circle cx="35" cy="35" r="5" fill="#FF6B35"></circle>
            <circle cx="-50" cy="0" r="5" fill="#FF6B35"></circle>
        </g>
    </g>
</svg>